<?xml version="1.0" encoding="utf-8"?>
<!-- Generator: Adobe Illustrator 18.1.1, SVG Export Plug-In . SVG Version: 6.00 Build 0)  -->
<svg version="1.1"
	 id="Capa_1" xmlns:dc="http://purl.org/dc/elements/1.1/" xmlns:cc="http://creativecommons.org/ns#" xmlns:inkscape="http://www.inkscape.org/namespaces/inkscape" xmlns:svg="http://www.w3.org/2000/svg" xmlns:sodipodi="http://sodipodi.sourceforge.net/DTD/sodipodi-0.dtd" xmlns:rdf="http://www.w3.org/1999/02/22-rdf-syntax-ns#"
	 xmlns="http://www.w3.org/2000/svg" xmlns:xlink="http://www.w3.org/1999/xlink" x="0px" y="0px" viewBox="336.6 80.6 286.7 286.7"
	 enable-background="new 336.6 80.6 286.7 286.7" xml:space="preserve">
<g transform="translate(0,-952.36218)">
	<path d="M480,1033c-79,0-143.4,64.3-143.4,143.4c0,79,64.3,143.4,143.4,143.4s143.4-64.3,143.4-143.4
		C623.4,1097.3,559,1033,480,1033z M480,1059.9c64.5,0,116.5,52,116.5,116.5c0,64.5-52,116.5-116.5,116.5s-116.5-52-116.5-116.5
		C363.5,1111.9,415.5,1059.9,480,1059.9z M480,1077.8c-7.4,0-13.4,6-13.4,13.4v85.1c0,3.7,1.5,7.1,3.9,9.5l53.9,53.9
		c5.2,5.2,13.8,5.2,19,0c5.2-5.2,5.2-13.8,0-19l-50-50v-79.5C493.4,1083.8,487.4,1077.8,480,1077.8z"/>
</g>
</svg>
