<?xml version="1.0" encoding="utf-8"?>
<!-- Generator: Adobe Illustrator 18.1.1, SVG Export Plug-In . SVG Version: 6.00 Build 0)  -->
<svg version="1.1" id="Capa_1" xmlns="http://www.w3.org/2000/svg" xmlns:xlink="http://www.w3.org/1999/xlink" x="0px" y="0px"
	 viewBox="0 0 400 400" enable-background="new 0 0 400 400" xml:space="preserve">
<g>
	<polygon fill="#EBB998" points="279.8,399.8 308.6,241.3 324.8,399.8 	"/>
	<g>
		<path fill="#CEE0E2" d="M308.6,243.1l16,156.4h-44.5L308.6,243.1 M308.7,239.6L279.5,400h45.7L308.7,239.6L308.7,239.6z"/>
	</g>
</g>
<g>
	<polygon fill="#DAA07A" points="279.7,302.9 308.1,241.5 279.7,397.2 	"/>
	<g>
		<path fill="#CEE0E2" d="M307.5,243.3L280,394.5V303L307.5,243.3 M308.7,239.6l-29.3,63.3V400L308.7,239.6L308.7,239.6z"/>
	</g>
</g>
<g>
	<polygon fill="#EBB998" points="235,399.8 279.2,304 279.2,399.8 	"/>
	<g>
		<path fill="#CEE0E2" d="M279,305.2v94.3h-43.6L279,305.2 M279.5,302.9L234.6,400h44.9V302.9L279.5,302.9z"/>
	</g>
</g>
<g>
	<polygon fill="#EBB998" points="256.4,218.4 307.9,239.5 201,267.4 	"/>
	<g>
		<path fill="#CEE0E2" d="M256.5,218.7l50.7,20.7l-105.2,27.4L256.5,218.7 M256.4,218.1L200,267.9l108.7-28.3L256.4,218.1
			L256.4,218.1z"/>
	</g>
</g>
<g>
	<polygon fill="#EBB998" points="243.4,210.3 256,218.2 201.7,266.1 	"/>
	<g>
		<path fill="#CEE0E2" d="M243.5,210.6l12.1,7.6l-52.2,46.1L243.5,210.6 M243.3,210L200,267.9l56.4-49.8L243.3,210L243.3,210z"/>
	</g>
</g>
<g>
	<polygon fill="#EBB998" points="229.9,187.2 243.1,209.9 204.2,213.8 	"/>
	<g>
		<path fill="#CEE0E2" d="M229.8,187.4l13.1,22.3l-38.4,3.9L229.8,187.4 M229.9,187L203.8,214l39.5-4L229.9,187L229.9,187z"/>
	</g>
</g>
<g>
	<polygon fill="#EBB998" points="74.8,399.8 91,241.3 119.8,399.8 	"/>
	<g>
		<path fill="#CEE0E2" d="M91,243.1l28.5,156.4H75L91,243.1 M90.9,239.6L74.5,400h45.7L90.9,239.6L90.9,239.6z"/>
	</g>
</g>
<g>
	<polygon fill="#DAA07A" points="91.5,241.5 119.9,302.9 119.9,397.2 	"/>
	<g>
		<path fill="#CEE0E2" d="M92.1,243.3l27.6,59.6v91.5L92.1,243.3 M90.9,239.6L120.1,400v-97.1L90.9,239.6L90.9,239.6z"/>
	</g>
</g>
<g>
	<polygon fill="#EBB998" points="120.1,399.8 120.1,304 164.3,399.8 	"/>
	<g>
		<path fill="#CEE0E2" d="M120.3,305.2l43.6,94.3h-43.6V305.2 M119.8,302.9V400h44.9L119.8,302.9L119.8,302.9z"/>
	</g>
</g>
<g>
	<polygon fill="#EBB998" points="156.5,209.9 170,187.2 196,214.3 	"/>
	<g>
		<path fill="#CEE0E2" d="M170.1,187.4l25.6,26.7l-39-4.4L170.1,187.4 M170,187L156.3,210l40,4.5L170,187L170,187z"/>
	</g>
</g>
<g>
	<polygon fill="#EBB998" points="170.1,186.9 167.8,170.5 195.5,213.5 	"/>
	<g>
		<path fill="#CEE0E2" d="M168,171.1l26.6,41.4l-24.4-25.5L168,171.1 M167.6,170L170,187l26.3,27.5L167.6,170L167.6,170z"/>
	</g>
</g>
<g>
	<polygon fill="#EBB998" points="184.3,195.6 199.7,201.4 196.2,214.2 	"/>
	<g>
		<path fill="#CEE0E2" d="M184.6,195.9l15,5.6l-3.4,12.4L184.6,195.9 M184,195.4l12.3,19.1l3.6-13.2L184,195.4L184,195.4z"/>
	</g>
</g>
<polygon fill="#EBB998" stroke="#CEE0E2" stroke-width="0.25" stroke-miterlimit="10" points="203.5,214.5 199.9,201.3 215.8,195.4 
	"/>
<g>
	<polygon fill="#EBB998" points="196.5,214.4 199.9,201.8 203.3,214.4 	"/>
	<g>
		<path fill="#CEE0E2" d="M199.9,202.2l3.3,12h-6.6L199.9,202.2 M199.9,201.3l-3.6,13.2h7.2L199.9,201.3L199.9,201.3z"/>
	</g>
</g>
<g>
	<polygon fill="#DAA07A" points="232,170.5 229.7,187 204.3,213.5 	"/>
	<g>
		<path fill="#CEE0E2" d="M231.8,171.1l-2.2,15.9l-24.4,25.5L231.8,171.1 M232.2,170l-28.7,44.5l26.3-27.5L232.2,170L232.2,170z"/>
	</g>
</g>
<g>
	<polygon fill="#DAA07A" points="200.1,201.4 215.5,195.6 203.5,214.2 	"/>
	<g>
		<path fill="#CEE0E2" d="M215.2,195.9l-11.6,18l-3.4-12.4L215.2,195.9 M215.8,195.4l-15.9,5.9l3.6,13.2L215.8,195.4L215.8,195.4z"
			/>
	</g>
</g>
<g>
	<polygon fill="#EBB998" points="92.2,239.3 143.2,218.4 198.6,239.3 	"/>
	<g>
		<path fill="#CEE0E2" d="M143.2,218.7l54,20.4H93.4L143.2,218.7 M143.2,218.1l-52.3,21.4H200L143.2,218.1L143.2,218.1z"/>
	</g>
</g>
<g>
	<polygon fill="#EBB998" points="143.8,218.1 156.3,210.3 198.1,238.6 	"/>
	<g>
		<path fill="#CEE0E2" d="M156.3,210.6l39.9,27L144.3,218L156.3,210.6 M156.3,210l-13.1,8.2l56.8,21.4L156.3,210L156.3,210z"/>
	</g>
</g>
<polygon fill="#EBB998" stroke="#CEE0E2" stroke-width="0.5" stroke-miterlimit="10" points="156.4,210 200,239.6 200,214.5 "/>
<rect x="120.1" y="302.9" fill="#EBB998" stroke="#CEE0E2" stroke-width="0.5533" stroke-miterlimit="10" width="159.3" height="97.1"/>
<polygon fill="#EBB998" stroke="#CEE0E2" stroke-width="0.5" stroke-miterlimit="10" points="90.9,239.6 120.1,302.9 200,239.6 "/>
<g>
	<polygon fill="#EBB998" points="201.2,239.3 256.6,218.4 307.6,239.3 	"/>
	<g>
		<path fill="#CEE0E2" d="M256.6,218.7l49.8,20.4H202.5L256.6,218.7 M256.6,218.1l-56.8,21.4h109.1L256.6,218.1L256.6,218.1z"/>
	</g>
</g>
<g>
	<polygon fill="#EBB998" points="243.5,210.1 256.3,218.1 200.8,239.1 	"/>
	<g>
		<path fill="#CEE0E2" d="M243.5,210.3l12.5,7.8l-54.3,20.5L243.5,210.3 M243.5,210l-43.7,29.6l56.8-21.4L243.5,210L243.5,210z"/>
	</g>
</g>
<polygon fill="#EBB998" stroke="#CEE0E2" stroke-width="0.25" stroke-miterlimit="10" points="243.4,210 199.8,239.6 199.8,214.5 
	"/>
<polygon fill="#EBB998" stroke="#CEE0E2" stroke-width="0.5" stroke-miterlimit="10" points="308.9,239.6 279.7,302.9 199.8,239.6 
	"/>
<polygon fill="#EBB998" stroke="#CEE0E2" stroke-width="0.5" stroke-miterlimit="10" points="200,239.6 120.1,302.9 279.5,302.9 "/>
<polygon fill="#FBFCFB" points="91.7,239.6 135.2,336.4 181.1,276.8 "/>
<polygon fill="#FBFCFB" points="308.2,239.6 263.8,337.5 218.9,276.8 "/>
<rect x="120.1" y="282.2" fill="#FBFCFB" width="159.3" height="117.8"/>
<polygon fill="#024A7E" points="243.6,210 309,239.6 200.1,284.7 "/>
<polygon fill="#024A7E" points="157.1,210 91.7,239.6 200.1,284.7 "/>
<line fill="none" stroke="#FBFCFB" stroke-width="2" stroke-miterlimit="10" x1="103.6" y1="234.2" x2="196.1" y2="277.8"/>
<polygon fill="#B81919" points="199.9,295.8 246.8,364.7 285.3,325.1 "/>
<polygon fill="#B81919" points="200.1,295.8 153.3,364.7 114.7,325.1 "/>
<polygon fill="#D11A18" points="150.7,297.8 136.1,334.4 233.4,297.8 "/>
<polygon fill="#D11A18" points="140.1,255.8 150.7,297.8 233.4,297.8 "/>
<polygon fill="#D11A18" points="249.2,297.8 263.8,334.4 166.5,297.8 "/>
<polygon fill="#D11A18" points="259.8,255.8 249.2,297.8 166.5,297.8 "/>
<circle fill="#F8CE3B" cx="199.9" cy="295.8" r="16.5"/>
<line fill="none" stroke="#FBFCFB" stroke-width="2" stroke-miterlimit="10" x1="296.3" y1="234.2" x2="203.8" y2="277.8"/>
</svg>
