<?xml version="1.0" encoding="utf-8"?>
<!-- Generator: Adobe Illustrator 18.1.1, SVG Export Plug-In . SVG Version: 6.00 Build 0)  -->
<svg version="1.1" id="Capa_1" xmlns="http://www.w3.org/2000/svg" xmlns:xlink="http://www.w3.org/1999/xlink" x="0px" y="0px"
	 viewBox="0 0 400 400" enable-background="new 0 0 400 400" xml:space="preserve">
<g>
	<polygon fill="#5B5B5E" points="280.1,399.8 308.9,241.3 325.1,399.8 	"/>
	<path fill="#1E120E" d="M308.9,243.1l16,156.4h-44.5L308.9,243.1 M309,239.6L279.8,400h45.7L309,239.6L309,239.6z"/>
</g>
<g>
	<polygon fill="#5B5B5E" points="280,302.9 308.4,241.5 280,397.2 	"/>
	<path fill="#1E120E" d="M307.8,243.3l-27.6,151.1V303L307.8,243.3 M309,239.6l-29.3,63.3V400L309,239.6L309,239.6z"/>
</g>
<g>
	<polygon fill="#5B5B5E" points="235.3,399.8 279.5,304 279.5,399.8 	"/>
	<path fill="#1E120E" d="M279.3,305.2v94.3h-43.6L279.3,305.2 M279.8,302.9L234.9,400h44.9V302.9L279.8,302.9z"/>
</g>
<g>
	<polygon fill="#5B5B5E" points="256.9,218.5 308.7,239.7 235.3,398.5 	"/>
	<path fill="#1E120E" d="M257.1,218.9l51.2,21l-72.6,157.1L257.1,218.9 M256.7,218.1L234.9,400L309,239.6L256.7,218.1L256.7,218.1z"
		/>
</g>
<g>
	<polygon fill="#5B5B5E" points="200.3,313.8 253.7,241.2 234.8,399 	"/>
	<path fill="#1E120E" d="M253.3,242.1L234.6,398l-34.1-84.2L253.3,242.1 M254,240.3l-54,73.4l34.9,86.2L254,240.3L254,240.3z"/>
</g>
<g>
	<polygon fill="#5B5B5E" points="200.2,399.7 200.2,315 234.5,399.8 	"/>
	<path fill="#1E120E" d="M200.5,316.3l33.6,83.2l-33.6,0V316.3 M200,313.8V400l34.9,0L200,313.8L200,313.8z"/>
</g>
<g>
	<polygon fill="#5B5B5E" points="224.1,230 253.6,240.4 200.6,312.5 	"/>
	<path fill="#1E120E" d="M224.3,230.3l28.9,10.2l-52,70.7L224.3,230.3 M223.9,229.7L200,313.8l54-73.4L223.9,229.7L223.9,229.7z"/>
</g>
<g>
	<polygon fill="#5B5B5E" points="224.4,229.6 243.5,210.4 253.6,239.9 	"/>
	<path fill="#1E120E" d="M243.4,210.9l9.8,28.6l-28.4-10L243.4,210.9 M243.6,210l-19.7,19.7l30.1,10.6L243.6,210L243.6,210z"/>
</g>
<g>
	<polygon fill="#5B5B5E" points="230,187.8 243.3,209.9 224.3,229 	"/>
	<path fill="#1E120E" d="M230.2,188.5l12.8,21.4l-18.4,18.4L230.2,188.5 M229.9,187l-5.9,42.7l19.7-19.7L229.9,187L229.9,187z"/>
</g>
<g>
	<polygon fill="#5B5B5E" points="244.1,210.5 256.4,218.3 253.9,239.2 	"/>
	<path fill="#1E120E" d="M244.6,211.1l11.6,7.3l-2.4,19.7L244.6,211.1 M243.6,210l10.4,30.4l2.7-22.2L243.6,210L243.6,210z"/>
</g>
<g>
	<polygon fill="#5B5B5E" points="74.8,399.8 91,241.3 119.8,399.8 	"/>
	<path fill="#1E120E" d="M91,243.1l28.5,156.4H75L91,243.1 M90.9,239.6L74.5,400h45.7L90.9,239.6L90.9,239.6z"/>
</g>
<g>
	<polygon fill="#5B5B5E" points="91.5,241.5 119.9,302.9 119.9,397.2 	"/>
	<path fill="#1E120E" d="M92.1,243.3l27.6,59.6v91.5L92.1,243.3 M90.9,239.6L120.1,400v-97.1L90.9,239.6L90.9,239.6z"/>
</g>
<g>
	<polygon fill="#5B5B5E" points="120.4,399.8 120.4,304 164.6,399.8 	"/>
	<path fill="#1E120E" d="M120.6,305.2l43.6,94.3h-43.6V305.2 M120.1,302.9V400H165L120.1,302.9L120.1,302.9z"/>
</g>
<g>
	<polygon fill="#5B5B5E" points="91.2,239.7 143,218.5 164.6,398.5 	"/>
	<path fill="#1E120E" d="M142.8,218.9l21.3,178.1L91.6,239.8L142.8,218.9 M143.2,218.1l-52.3,21.4L165,400L143.2,218.1L143.2,218.1z
		"/>
</g>
<g>
	<polygon fill="#5B5B5E" points="146.2,241.2 199.6,313.8 165.1,399 	"/>
	<path fill="#1E120E" d="M146.6,242.1l52.7,71.7L165.3,398L146.6,242.1 M145.9,240.3L165,400l34.9-86.2L145.9,240.3L145.9,240.3z"/>
</g>
<g>
	<polygon fill="#5B5B5E" points="199.6,315 199.6,399.7 165.4,399.8 	"/>
	<path fill="#1E120E" d="M199.4,316.3v83.2l-33.6,0L199.4,316.3 M199.9,313.8L165,400l34.9,0V313.8L199.9,313.8z"/>
</g>
<g>
	<polygon fill="#5B5B5E" points="146.3,240.4 175.8,230 199.3,312.5 	"/>
	<path fill="#1E120E" d="M175.6,230.3l23,80.9l-52-70.7L175.6,230.3 M176,229.7l-30.1,10.6l54,73.4L176,229.7L176,229.7z"/>
</g>
<g>
	<polygon fill="#5B5B5E" points="156.4,210.4 175.5,229.6 146.3,239.9 	"/>
	<path fill="#1E120E" d="M156.5,210.9l18.6,18.6l-28.4,10L156.5,210.9 M156.3,210l-10.4,30.4l30.1-10.6L156.3,210L156.3,210z"/>
</g>
<g>
	<polygon fill="#5B5B5E" points="156.6,209.9 169.9,187.8 175.6,229 	"/>
	<path fill="#1E120E" d="M169.7,188.5l5.5,39.8l-18.4-18.4L169.7,188.5 M170,187L156.3,210l19.7,19.7L170,187L170,187z"/>
</g>
<g>
	<polygon fill="#5B5B5E" points="143.5,218.3 155.8,210.5 146,239.2 	"/>
	<path fill="#1E120E" d="M155.3,211.1l-9.2,26.9l-2.4-19.7L155.3,211.1 M156.3,210l-13.1,8.2l2.7,22.2L156.3,210L156.3,210z"/>
</g>
<g>
	<polygon fill="#89878B" points="187.6,269.9 196.5,237.2 203.3,237.2 212.2,269.9 200,312.9 	"/>
	<path fill="#1E120E" d="M203.1,237.5l8.9,32.4l-12,42.1l-12.2-42.1l8.9-32.4H203.1 M203.5,237h-7.2l-9,32.9l12.7,43.9l12.5-43.9
		L203.5,237L203.5,237z"/>
</g>
<g>
	<polygon fill="#89878B" points="203.8,237.1 223.6,230.1 212.5,269 	"/>
	<path fill="#1E120E" d="M223.2,230.5L212.5,268l-8.4-30.8L223.2,230.5 M223.9,229.7l-20.4,7.3l9,32.9L223.9,229.7L223.9,229.7z"/>
</g>
<g>
	<polygon fill="#89878B" points="196.5,236.7 193,225.7 196.5,214.7 203.3,214.7 206.8,225.7 203.3,236.7 	"/>
	<path fill="#1E120E" d="M203.1,215l3.4,10.7l-3.4,10.7h-6.5l-3.4-10.7l3.4-10.7H203.1 M203.5,214.5h-7.2l-3.6,11.2l3.6,11.2h7.2
		l3.6-11.2L203.5,214.5L203.5,214.5z"/>
</g>
<g>
	<polygon fill="#89878B" points="207.1,226.5 209.9,234.4 203.9,236.6 	"/>
	<path fill="#1E120E" d="M207.1,227.3l2.5,7l-5.3,1.9L207.1,227.3 M207.1,225.7l-3.6,11.2l6.7-2.4L207.1,225.7L207.1,225.7z"/>
</g>
<g>
	<polygon fill="#89878B" points="204,215.2 223.4,229.6 210.4,234.2 	"/>
	<path fill="#1E120E" d="M204.5,215.8l18.4,13.7l-12.4,4.4L204.5,215.8 M203.5,214.5l6.7,20.1l13.7-4.9L203.5,214.5L203.5,214.5z"/>
</g>
<g>
	<polygon fill="#89878B" points="203.9,214.5 229.5,187.8 223.8,229.2 	"/>
	<path fill="#1E120E" d="M229.2,188.5l-5.6,40.3l-19.3-14.4L229.2,188.5 M229.9,187l-26.4,27.5l20.4,15.2L229.9,187L229.9,187z"/>
</g>
<g>
	<polygon fill="#89878B" points="176.2,230.1 196,237.1 187.3,269 	"/>
	<path fill="#1E120E" d="M176.6,230.5l19.1,6.8l-8.4,30.8L176.6,230.5 M175.9,229.7l11.4,40.2l9-32.9L175.9,229.7L175.9,229.7z"/>
</g>
<g>
	<polygon fill="#89878B" points="189.9,234.4 192.7,226.5 195.9,236.6 	"/>
	<path fill="#1E120E" d="M192.7,227.3l2.8,8.9l-5.3-1.9L192.7,227.3 M192.7,225.7l-3.1,8.8l6.7,2.4L192.7,225.7L192.7,225.7z"/>
</g>
<g>
	<polygon fill="#89878B" points="176.4,229.6 195.8,215.2 189.4,234.2 	"/>
	<path fill="#1E120E" d="M195.3,215.8l-6.1,18.1l-12.4-4.4L195.3,215.8 M196.3,214.5l-20.4,15.2l13.7,4.9L196.3,214.5L196.3,214.5z"
		/>
</g>
<g>
	<polygon fill="#89878B" points="170.3,187.8 195.9,214.5 176,229.2 	"/>
	<path fill="#1E120E" d="M170.6,188.5l24.9,25.9l-19.3,14.4L170.6,188.5 M169.9,187l5.9,42.7l20.4-15.2L169.9,187L169.9,187z"/>
</g>
<polygon fill="#EBB998" stroke="#CEE0E2" stroke-width="0.5" stroke-miterlimit="10" points="163.6,125.9 167.6,170 199.9,125.9 "/>
<polygon fill="#EBB998" stroke="#CEE0E2" stroke-width="0.5" stroke-miterlimit="10" points="167.6,170 199.9,125.9 199.9,184.4 "/>
<polygon fill="#EBB998" stroke="#CEE0E2" stroke-width="0.5" stroke-miterlimit="10" points="170,187 167.6,170 196.3,214.5 "/>
<polygon fill="#EBB998" stroke="#CEE0E2" stroke-width="0.5" stroke-miterlimit="10" points="167.6,170 159.5,151.9 157.5,132.9 
	164.8,138.9 "/>
<polygon fill="#EBB998" stroke="#CEE0E2" stroke-width="0.5" stroke-miterlimit="10" points="167.6,170 184,195.4 199.9,184.4 "/>
<polygon fill="#EBB998" stroke="#CEE0E2" stroke-width="0.5" stroke-miterlimit="10" points="196.3,214.5 199.9,201.3 184,195.4 "/>
<polygon fill="#EBB998" stroke="#CEE0E2" stroke-width="0.5" stroke-miterlimit="10" points="203.5,214.5 199.9,201.3 215.8,195.4 
	"/>
<polygon fill="#EBB998" stroke="#CEE0E2" stroke-width="0.5" stroke-miterlimit="10" points="199.9,201.3 199.9,184.4 184,195.4 "/>
<polygon fill="#DAA07A" stroke="#CEE0E2" stroke-width="0.5" stroke-miterlimit="10" points="199.9,201.3 203.5,214.5 196.3,214.5 
	"/>
<polygon fill="#DAA07A" stroke="#CEE0E2" stroke-width="0.5" stroke-miterlimit="10" points="236.2,125.9 232.2,170 199.9,125.9 "/>
<polygon fill="#DAA07A" stroke="#CEE0E2" stroke-width="0.5" stroke-miterlimit="10" points="232.2,170 199.9,125.9 199.9,184.4 "/>
<polygon fill="#DAA07A" stroke="#CEE0E2" stroke-width="0.5" stroke-miterlimit="10" points="229.8,187 232.2,170 203.5,214.5 "/>
<polygon fill="#DAA07A" stroke="#CEE0E2" stroke-width="0.5" stroke-miterlimit="10" points="232.2,170 240.3,151.9 242.3,132.9 
	235,138.9 "/>
<polygon fill="#DAA07A" stroke="#CEE0E2" stroke-width="0.5" stroke-miterlimit="10" points="232.2,170 215.8,195.4 199.9,184.4 "/>
<polygon fill="#DAA07A" stroke="#CEE0E2" stroke-width="0.5" stroke-miterlimit="10" points="199.9,201.3 199.9,184.4 215.8,195.4 
	"/>
<g>
	<polygon fill="#403038" points="279.9,399.9 309,240.4 325.3,399.9 	"/>
	<g>
		<path fill="#CEE0E2" d="M308.9,241.3l16.2,158.4h-45.1L308.9,241.3 M309,239.6L279.8,400h45.7L309,239.6L309,239.6z"/>
	</g>
</g>
<g>
	<polygon fill="#2F2027" points="279.9,302.9 308.7,240.5 279.9,398.6 	"/>
	<g>
		<path fill="#CEE0E2" d="M308.4,241.5L280,397.2v-94.3L308.4,241.5 M309,239.6l-29.3,63.3V400L309,239.6L309,239.6z"/>
	</g>
</g>
<g>
	<polygon fill="#403038" points="235.1,399.9 279.6,303.4 279.6,399.9 	"/>
	<g>
		<path fill="#CEE0E2" d="M279.5,304v95.7h-44.2L279.5,304 M279.8,302.9L234.9,400h44.9V302.9L279.8,302.9z"/>
	</g>
</g>
<g>
	<polygon fill="#403038" points="256.8,218.3 308.8,239.6 235.1,399.2 	"/>
	<g>
		<path fill="#CEE0E2" d="M256.9,218.5l51.8,21.2l-73.3,158.8L256.9,218.5 M256.7,218.1L234.9,400L309,239.6L256.7,218.1
			L256.7,218.1z"/>
	</g>
</g>
<g>
	<polygon fill="#403038" points="200.1,313.8 253.8,240.8 234.8,399.5 	"/>
	<g>
		<path fill="#CEE0E2" d="M253.7,241.2L234.8,399l-34.5-85.2L253.7,241.2 M254,240.3l-54,73.4l34.9,86.2L254,240.3L254,240.3z"/>
	</g>
</g>
<g>
	<polygon fill="#403038" points="200.1,399.9 200.1,314.4 234.7,399.9 	"/>
	<g>
		<path fill="#CEE0E2" d="M200.2,315l34.3,84.7l-34.3,0V315 M200,313.8V400l34.9,0L200,313.8L200,313.8z"/>
	</g>
</g>
<g>
	<polygon fill="#392A31" points="224,229.8 253.8,240.4 200.3,313.1 	"/>
	<g>
		<path fill="#CEE0E2" d="M224.1,230l29.5,10.4l-53,72.1L224.1,230 M223.9,229.7L200,313.8l54-73.4L223.9,229.7L223.9,229.7z"/>
	</g>
</g>
<g>
	<polygon fill="#392A31" points="224.2,229.6 243.6,210.2 253.8,240.1 	"/>
	<g>
		<path fill="#CEE0E2" d="M243.5,210.4l10.1,29.5l-29.2-10.3L243.5,210.4 M243.6,210l-19.7,19.7l30.1,10.6L243.6,210L243.6,210z"/>
	</g>
</g>
<g>
	<polygon fill="#392A31" points="230,187.4 243.5,209.9 224.1,229.3 	"/>
	<g>
		<path fill="#CEE0E2" d="M230,187.8l13.3,22.2l-19,19.1L230,187.8 M229.9,187l-5.9,42.7l19.7-19.7L229.9,187L229.9,187z"/>
	</g>
</g>
<g>
	<polygon fill="#392A31" points="243.9,210.3 256.5,218.2 254,239.8 	"/>
	<g>
		<path fill="#CEE0E2" d="M244.1,210.5l12.3,7.7l-2.5,20.9L244.1,210.5 M243.6,210l10.4,30.4l2.7-22.2L243.6,210L243.6,210z"/>
	</g>
</g>
<g>
	<polygon fill="#403038" points="74.6,399.9 90.9,240.4 120,399.9 	"/>
	<g>
		<path fill="#CEE0E2" d="M91,241.3l28.9,158.4H74.8L91,241.3 M90.9,239.6L74.5,400h45.7L90.9,239.6L90.9,239.6z"/>
	</g>
</g>
<g>
	<polygon fill="#2F2027" points="91.2,240.5 120,302.9 120,398.6 	"/>
	<g>
		<path fill="#CEE0E2" d="M91.5,241.5l28.4,61.5v94.3L91.5,241.5 M90.9,239.6L120.1,400v-97.1L90.9,239.6L90.9,239.6z"/>
	</g>
</g>
<g>
	<polygon fill="#403038" points="120.3,399.9 120.3,303.4 164.8,399.9 	"/>
	<g>
		<path fill="#CEE0E2" d="M120.4,304l44.2,95.7h-44.2V304 M120.1,302.9V400H165L120.1,302.9L120.1,302.9z"/>
	</g>
</g>
<g>
	<polygon fill="#403038" points="91.1,239.6 143.1,218.3 164.8,399.2 	"/>
	<g>
		<path fill="#CEE0E2" d="M143,218.5l21.6,180L91.2,239.7L143,218.5 M143.2,218.1l-52.3,21.4L165,400L143.2,218.1L143.2,218.1z"/>
	</g>
</g>
<g>
	<polygon fill="#403038" points="146.1,240.8 199.8,313.8 165.1,399.5 	"/>
	<g>
		<path fill="#CEE0E2" d="M146.2,241.2l53.4,72.6L165.1,399L146.2,241.2 M145.9,240.3L165,400l34.9-86.2L145.9,240.3L145.9,240.3z"
			/>
	</g>
</g>
<g>
	<polygon fill="#403038" points="199.8,314.4 199.8,399.9 165.2,399.9 	"/>
	<g>
		<path fill="#CEE0E2" d="M199.7,315v84.7l-34.3,0L199.7,315 M199.9,313.8L165,400l34.9,0V313.8L199.9,313.8z"/>
	</g>
</g>
<g>
	<polygon fill="#392A31" points="146.1,240.4 175.9,229.8 199.6,313.1 	"/>
	<g>
		<path fill="#CEE0E2" d="M175.8,230l23.5,82.5l-53-72.1L175.8,230 M176,229.7l-30.1,10.6l54,73.4L176,229.7L176,229.7z"/>
	</g>
</g>
<g>
	<polygon fill="#392A31" points="156.3,210.2 175.7,229.6 146.1,240.1 	"/>
	<g>
		<path fill="#CEE0E2" d="M156.4,210.4l19.1,19.2l-29.2,10.3L156.4,210.4 M156.3,210l-10.4,30.4l30.1-10.6L156.3,210L156.3,210z"/>
	</g>
</g>
<g>
	<polygon fill="#392A31" points="156.4,209.9 169.9,187.4 175.8,229.3 	"/>
	<g>
		<path fill="#CEE0E2" d="M169.9,187.8l5.7,41.2l-19-19.1L169.9,187.8 M170,187L156.3,210l19.7,19.7L170,187L170,187z"/>
	</g>
</g>
<g>
	<polygon fill="#392A31" points="143.4,218.2 156,210.3 145.9,239.8 	"/>
	<g>
		<path fill="#CEE0E2" d="M155.8,210.5l-9.8,28.7l-2.5-20.9L155.8,210.5 M156.3,210l-13.1,8.2l2.7,22.2L156.3,210L156.3,210z"/>
	</g>
</g>
<g>
	<polygon fill="#B80314" points="187.4,269.9 196.4,237.1 203.4,237.1 212.4,269.9 200,313.3 	"/>
	<g>
		<path fill="#CEE0E2" d="M203.3,237.2l8.9,32.7l-12.2,43l-12.4-43l8.9-32.7H203.3 M203.5,237h-7.2l-9,32.9l12.7,43.9l12.5-43.9
			L203.5,237L203.5,237z"/>
	</g>
</g>
<g>
	<polygon fill="#FFF9F8" points="203.7,237 223.8,229.9 212.5,269.4 	"/>
	<g>
		<path fill="#CEE0E2" d="M223.6,230.1L212.5,269l-8.7-31.8L223.6,230.1 M223.9,229.7l-20.4,7.3l9,32.9L223.9,229.7L223.9,229.7z"/>
	</g>
</g>
<g>
	<polygon fill="#B40512" points="196.4,236.8 192.8,225.7 196.4,214.6 203.4,214.6 207,225.8 203.4,236.8 	"/>
	<g>
		<path fill="#CEE0E2" d="M203.3,214.7l3.5,11l-3.5,11h-6.8l-3.5-11l3.5-11H203.3 M203.5,214.5h-7.2l-3.6,11.2l3.6,11.2h7.2
			l3.6-11.2L203.5,214.5L203.5,214.5z"/>
	</g>
</g>
<g>
	<polygon fill="#FFF9F8" points="207.1,226.1 210.1,234.5 203.7,236.8 	"/>
	<g>
		<path fill="#CEE0E2" d="M207.1,226.5l2.8,7.9l-6,2.1L207.1,226.5 M207.1,225.7l-3.6,11.2l6.7-2.4L207.1,225.7L207.1,225.7z"/>
	</g>
</g>
<g>
	<polygon fill="#FFF9F8" points="203.7,214.8 223.7,229.6 210.3,234.4 	"/>
	<g>
		<path fill="#CEE0E2" d="M204,215.2l19.4,14.4l-13,4.6L204,215.2 M203.5,214.5l6.7,20.1l13.7-4.9L203.5,214.5L203.5,214.5z"/>
	</g>
</g>
<g>
	<polygon fill="#FFF9F8" points="203.7,214.5 229.7,187.4 223.8,229.5 	"/>
	<g>
		<path fill="#CEE0E2" d="M229.5,187.8l-5.8,41.5l-19.9-14.8L229.5,187.8 M229.9,187l-26.4,27.5l20.4,15.2L229.9,187L229.9,187z"/>
	</g>
</g>
<g>
	<polygon fill="#FFF9F8" points="176,229.9 196.1,237 187.3,269.4 	"/>
	<g>
		<path fill="#CEE0E2" d="M176.2,230.1l19.8,7l-8.7,31.8L176.2,230.1 M175.9,229.7l11.4,40.2l9-32.9L175.9,229.7L175.9,229.7z"/>
	</g>
</g>
<g>
	<polygon fill="#FFF9F8" points="189.7,234.5 192.7,226.1 196.1,236.8 	"/>
	<g>
		<path fill="#CEE0E2" d="M192.7,226.5l3.2,10l-6-2.1L192.7,226.5 M192.7,225.7l-3.1,8.8l6.7,2.4L192.7,225.7L192.7,225.7z"/>
	</g>
</g>
<g>
	<polygon fill="#FFF9F8" points="176.1,229.6 196.1,214.8 189.5,234.4 	"/>
	<g>
		<path fill="#CEE0E2" d="M195.8,215.2l-6.4,19.1l-13-4.6L195.8,215.2 M196.3,214.5l-20.4,15.2l13.7,4.9L196.3,214.5L196.3,214.5z"
			/>
	</g>
</g>
<g>
	<polygon fill="#FFF9F8" points="170.1,187.4 196.1,214.5 176,229.5 	"/>
	<g>
		<path fill="#CEE0E2" d="M170.3,187.8l25.7,26.7L176,229.2L170.3,187.8 M169.9,187l5.9,42.7l20.4-15.2L169.9,187L169.9,187z"/>
	</g>
</g>
<g>
	<ellipse fill="#21141A" cx="199.5" cy="93.3" rx="37.4" ry="30.3"/>
</g>
<g>
	<rect x="162.1" y="93.3" fill="#21141A" width="74.8" height="32.6"/>
</g>
<g>
	<ellipse fill="#21141A" cx="200.4" cy="121.9" rx="57.5" ry="7.2"/>
</g>
<path fill="#1E120E" stroke="#1E120E" stroke-width="0.5" stroke-miterlimit="10" d="M198.9,138.3"/>
<g>
	<polygon fill="#596B17" points="214.7,103.4 235.5,101.6 222.6,114.2 201.3,114.2 	"/>
	<path fill="#1E120E" d="M234.1,102.2l-11.7,11.5l-19.7,0l12.2-9.8L234.1,102.2 M236.8,101l-22.3,1.9l-14.6,11.8l22.9,0L236.8,101
		L236.8,101z"/>
</g>
<g>
	<polygon fill="#596B17" points="212.7,133.5 200.5,115.1 221.5,120.9 232.6,133.5 	"/>
	<path fill="#1E120E" d="M201.1,115.5l20.3,5.6l10.7,12.1h-19.2L201.1,115.5 M199.9,114.7l12.7,19.1h20.6l-11.5-13L199.9,114.7
		L199.9,114.7z"/>
</g>
<g>
	<polygon fill="#596B17" points="177.2,114.2 164.3,101.6 185.1,103.4 198.5,114.2 	"/>
	<path fill="#1E120E" d="M165.7,102.2l19.2,1.7l12.2,9.8l-19.7,0L165.7,102.2 M163,101l14,13.7l22.9,0l-14.6-11.8L163,101L163,101z"
		/>
</g>
<g>
	<polygon fill="#596B17" points="167.2,133.5 178.3,120.9 199.3,115.1 187.1,133.5 	"/>
	<path fill="#1E120E" d="M198.7,115.5l-11.8,17.7h-19.2l10.7-12.1L198.7,115.5 M199.9,114.7l-21.8,6l-11.5,13h20.6L199.9,114.7
		L199.9,114.7z"/>
</g>
<line fill="none" stroke="#596B17" stroke-width="2" stroke-miterlimit="10" x1="200" y1="133.7" x2="200" y2="107.7"/>
<path fill="#8B9413" stroke="#1E120E" stroke-miterlimit="10" d="M175.8,133.7"/>
<path fill="#8B9413" stroke="#1E120E" stroke-miterlimit="10" d="M199.5,158"/>
</svg>
